<svg width="10" height="10" viewBox="0 0 10 10" fill="none" xmlns="http://www.w3.org/2000/svg">
<path d="M3.21683 6.85664L3.95058 6.64498L8.3685 2.17414C8.40334 2.13843 8.42275 2.09045 8.42251 2.04055C8.42228 1.99066 8.40243 1.94286 8.36725 1.90748L8.10266 1.63998C8.08557 1.62241 8.06514 1.60842 8.04258 1.59883C8.02002 1.58925 7.99577 1.58425 7.97126 1.58413C7.94674 1.58401 7.92245 1.58878 7.8998 1.59816C7.87715 1.60753 7.85659 1.62132 7.83933 1.63873L3.43308 6.09789L3.21641 6.85623L3.21683 6.85664ZM8.62641 1.10998L8.891 1.37789C9.256 1.74748 9.25933 2.34373 8.89766 2.70956L4.34516 7.31706L2.77683 7.76873C2.68108 7.79553 2.57861 7.78325 2.4919 7.73458C2.40519 7.68592 2.34133 7.60484 2.31433 7.50914C2.29424 7.44034 2.29395 7.36727 2.3135 7.29831L2.76975 5.69831L7.31016 1.10289C7.3965 1.01596 7.49928 0.947086 7.61251 0.90029C7.72575 0.853495 7.84717 0.829714 7.96969 0.830334C8.09221 0.830955 8.21338 0.855964 8.32613 0.903905C8.43888 0.951845 8.54096 1.02176 8.62641 1.10956V1.10998ZM3.82683 1.59039C4.0335 1.59039 4.201 1.75998 4.201 1.96914C4.20133 2.01859 4.19191 2.06761 4.17327 2.11342C4.15464 2.15922 4.12717 2.2009 4.09242 2.23607C4.05767 2.27125 4.01633 2.29923 3.97075 2.31842C3.92518 2.3376 3.87628 2.34762 3.82683 2.34789H2.33016C1.91683 2.34789 1.58183 2.68706 1.58183 3.10498V7.64914C1.58183 8.06748 1.91683 8.40664 2.33016 8.40664H6.82016C7.2335 8.40664 7.56891 8.06748 7.56891 7.64914V6.13456C7.56891 5.92539 7.73641 5.75581 7.94308 5.75581C8.14975 5.75581 8.31725 5.92539 8.31725 6.13498V7.64914C8.31725 8.48581 7.64683 9.16414 6.82016 9.16414H2.33016C1.5035 9.16414 0.833496 8.48581 0.833496 7.64914V3.10498C0.833496 2.26873 1.5035 1.59039 2.33016 1.59039H3.82683Z" fill="black"/>
</svg>
