<?xml version="1.0" encoding="UTF-8"?>
<svg xmlns="http://www.w3.org/2000/svg" xmlns:xlink="http://www.w3.org/1999/xlink" width="13pt" height="13pt" viewBox="0 0 13 13" version="1.1">
<g id="surface1">
<path style=" stroke:none;fill-rule:nonzero;fill:rgb(62.352941%,63.529412%,70.588235%);fill-opacity:1;" d="M 12.011719 4.371094 C 12.054688 4.152344 12.074219 3.933594 12.074219 3.710938 C 12.070312 1.660156 10.40625 0 8.355469 0 C 6.792969 0.00390625 5.398438 0.980469 4.867188 2.449219 C 3.914062 2.070312 2.835938 2.535156 2.453125 3.488281 C 2.421875 3.570312 2.394531 3.65625 2.375 3.742188 C 0.851562 3.96875 -0.195312 5.386719 0.03125 6.910156 C 0.234375 8.273438 1.40625 9.285156 2.789062 9.285156 L 5.109375 9.285156 C 5.367188 9.285156 5.574219 9.074219 5.574219 8.820312 C 5.574219 8.5625 5.367188 8.355469 5.109375 8.355469 L 2.789062 8.355469 C 1.761719 8.355469 0.929688 7.523438 0.929688 6.496094 C 0.929688 5.472656 1.761719 4.640625 2.789062 4.640625 C 3.042969 4.640625 3.25 4.433594 3.25 4.175781 C 3.253906 3.664062 3.667969 3.246094 4.183594 3.25 C 4.425781 3.25 4.65625 3.34375 4.832031 3.515625 C 5.011719 3.695312 5.308594 3.691406 5.488281 3.507812 C 5.554688 3.441406 5.597656 3.351562 5.613281 3.257812 C 5.867188 1.742188 7.300781 0.714844 8.816406 0.96875 C 10.332031 1.222656 11.359375 2.65625 11.105469 4.171875 C 11.089844 4.261719 11.070312 4.351562 11.046875 4.4375 C 10.992188 4.632812 11.070312 4.839844 11.238281 4.949219 C 12.09375 5.515625 12.328125 6.667969 11.761719 7.523438 C 11.417969 8.042969 10.835938 8.351562 10.214844 8.355469 L 8.824219 8.355469 C 8.566406 8.355469 8.359375 8.5625 8.359375 8.820312 C 8.359375 9.074219 8.566406 9.285156 8.824219 9.285156 L 10.214844 9.285156 C 11.753906 9.28125 13 8.035156 13 6.496094 C 13 5.675781 12.636719 4.898438 12.011719 4.371094 Z M 12.011719 4.371094 "/>
<path style=" stroke:none;fill-rule:nonzero;fill:rgb(62.352941%,63.529412%,70.588235%);fill-opacity:1;" d="M 9.605469 9.882812 C 9.425781 9.710938 9.140625 9.710938 8.960938 9.882812 L 7.429688 11.414062 L 7.429688 4.640625 C 7.429688 4.382812 7.222656 4.175781 6.964844 4.175781 C 6.710938 4.175781 6.503906 4.382812 6.503906 4.640625 L 6.503906 11.414062 L 4.972656 9.882812 C 4.789062 9.707031 4.496094 9.710938 4.316406 9.894531 C 4.144531 10.074219 4.144531 10.359375 4.316406 10.539062 L 6.636719 12.863281 C 6.820312 13.042969 7.113281 13.042969 7.292969 12.863281 C 7.296875 12.863281 7.296875 12.863281 7.296875 12.863281 L 9.617188 10.539062 C 9.796875 10.355469 9.789062 10.0625 9.605469 9.882812 Z M 9.605469 9.882812 "/>
</g>
</svg>
