<svg width="14" height="14" viewBox="0 0 14 14" fill="none" xmlns="http://www.w3.org/2000/svg">
<path d="M4.14671 9.97073L5.32071 9.63206L12.3894 2.47873C12.4451 2.42159 12.4762 2.34482 12.4758 2.26498C12.4754 2.18515 12.4437 2.10867 12.3874 2.05206L11.964 1.62406C11.9367 1.59595 11.904 1.57357 11.8679 1.55823C11.8318 1.54289 11.793 1.53489 11.7538 1.53471C11.7146 1.53452 11.6757 1.54215 11.6395 1.55715C11.6032 1.57215 11.5703 1.59421 11.5427 1.62206L4.49271 8.75673L4.14604 9.97006L4.14671 9.97073ZM12.802 0.77606L13.2254 1.20473C13.8094 1.79606 13.8147 2.75006 13.236 3.33539L5.95204 10.7074L3.44271 11.4301C3.2895 11.4729 3.12555 11.4533 2.98682 11.3754C2.84808 11.2976 2.74591 11.1678 2.70271 11.0147C2.67056 10.9046 2.6701 10.7877 2.70137 10.6774L3.43137 8.11739L10.696 0.764727C10.8342 0.625632 10.9986 0.515435 11.1798 0.440562C11.361 0.365689 11.5552 0.327639 11.7513 0.328632C11.9473 0.329625 12.1412 0.369641 12.3216 0.446345C12.502 0.523049 12.6653 0.634907 12.802 0.775394V0.77606ZM5.12271 1.54473C5.45337 1.54473 5.72137 1.81606 5.72137 2.15073C5.7219 2.22984 5.70683 2.30828 5.67702 2.38156C5.64721 2.45485 5.60325 2.52153 5.54765 2.57782C5.49205 2.6341 5.4259 2.67887 5.35299 2.70957C5.28007 2.74026 5.20182 2.75629 5.12271 2.75673H2.72804C2.06671 2.75673 1.53071 3.29939 1.53071 3.96806V11.2387C1.53071 11.9081 2.06671 12.4507 2.72804 12.4507H9.91204C10.5734 12.4507 11.11 11.9081 11.11 11.2387V8.81539C11.11 8.48073 11.378 8.20939 11.7087 8.20939C12.0394 8.20939 12.3074 8.48073 12.3074 8.81606V11.2387C12.3074 12.5774 11.2347 13.6627 9.91204 13.6627H2.72804C1.40537 13.6627 0.333374 12.5774 0.333374 11.2387V3.96806C0.333374 2.63006 1.40537 1.54473 2.72804 1.54473H5.12271Z" fill="black"/>
</svg>
