<svg width="20" height="20" viewBox="0 0 20 20" fill="none" xmlns="http://www.w3.org/2000/svg">
<path d="M9.99984 1.66663C5.39984 1.66663 1.6665 5.39996 1.6665 9.99996C1.6665 14.6 5.39984 18.3333 9.99984 18.3333C14.5998 18.3333 18.3332 14.6 18.3332 9.99996C18.3332 5.39996 14.5998 1.66663 9.99984 1.66663ZM10.8332 15.8333H9.1665V14.1666H10.8332V15.8333ZM12.5582 9.37496L11.8082 10.1416C11.2082 10.75 10.8332 11.25 10.8332 12.5H9.1665V12.0833C9.1665 11.1666 9.5415 10.3333 10.1415 9.72496L11.1748 8.67496C11.4832 8.37496 11.6665 7.95829 11.6665 7.49996C11.6665 6.58329 10.9165 5.83329 9.99984 5.83329C9.08317 5.83329 8.33317 6.58329 8.33317 7.49996H6.6665C6.6665 5.65829 8.15817 4.16663 9.99984 4.16663C11.8415 4.16663 13.3332 5.65829 13.3332 7.49996C13.3332 8.23329 13.0332 8.89996 12.5582 9.37496Z" fill="#C5C7CD"/>
</svg>
