<svg width="20" height="20" viewBox="0 0 20 20" fill="none" xmlns="http://www.w3.org/2000/svg">
<path fill-rule="evenodd" clip-rule="evenodd" d="M10 18.75C12.3206 18.75 14.5462 17.8281 16.1872 16.1872C17.8281 14.5462 18.75 12.3206 18.75 10C18.75 7.67936 17.8281 5.45376 16.1872 3.81282C14.5462 2.17187 12.3206 1.25 10 1.25C7.67936 1.25 5.45376 2.17187 3.81282 3.81282C2.17187 5.45376 1.25 7.67936 1.25 10C1.25 12.3206 2.17187 14.5462 3.81282 16.1872C5.45376 17.8281 7.67936 18.75 10 18.75ZM10 20C12.6522 20 15.1957 18.9464 17.0711 17.0711C18.9464 15.1957 20 12.6522 20 10C20 7.34784 18.9464 4.8043 17.0711 2.92893C15.1957 1.05357 12.6522 0 10 0C7.34784 0 4.8043 1.05357 2.92893 2.92893C1.05357 4.8043 0 7.34784 0 10C0 12.6522 1.05357 15.1957 2.92893 17.0711C4.8043 18.9464 7.34784 20 10 20Z" fill="#FF7C53"/>
<path d="M14.8738 6.54036C15.2643 6.14983 15.2643 5.51667 14.8738 5.12615C14.4833 4.73562 13.8501 4.73562 13.4596 5.12615L14.8738 6.54036ZM5.12627 13.4595C4.73574 13.85 4.73574 14.4832 5.12627 14.8737C5.51679 15.2642 6.14996 15.2642 6.54048 14.8737L5.12627 13.4595ZM6.54048 5.12615C6.14996 4.73562 5.51679 4.73562 5.12627 5.12615C4.73574 5.51667 4.73574 6.14983 5.12627 6.54036L6.54048 5.12615ZM13.4596 14.8737C13.8501 15.2642 14.4833 15.2642 14.8738 14.8737C15.2643 14.4832 15.2643 13.85 14.8738 13.4595L13.4596 14.8737ZM13.4596 5.12615L5.12627 13.4595L6.54048 14.8737L14.8738 6.54036L13.4596 5.12615ZM5.12627 6.54036L13.4596 14.8737L14.8738 13.4595L6.54048 5.12615L5.12627 6.54036Z" fill="#FF7C53"/>
</svg>
