<?xml version="1.0" encoding="UTF-8"?>
<svg xmlns="http://www.w3.org/2000/svg" xmlns:xlink="http://www.w3.org/1999/xlink" width="24pt" height="24pt" viewBox="0 0 24 24" version="1.1">
<g id="surface1">
<path style=" stroke:none;fill-rule:nonzero;fill:rgb(100%,100%,100%);fill-opacity:1;" d="M 14.039062 24 L 13.5 24 C 12.671875 24 12 23.328125 12 22.5 L 12 16.847656 C 12 16.019531 12.671875 15.347656 13.5 15.347656 L 14.039062 15.347656 C 14.863281 15.347656 15.539062 16.019531 15.539062 16.847656 L 15.539062 22.5 C 15.539062 23.328125 14.863281 24 14.039062 24 Z M 13.5 16.347656 C 13.226562 16.347656 13 16.574219 13 16.847656 L 13 22.5 C 13 22.773438 13.226562 23 13.5 23 L 14.039062 23 C 14.3125 23 14.539062 22.773438 14.539062 22.5 L 14.539062 16.847656 C 14.539062 16.574219 14.3125 16.347656 14.039062 16.347656 Z M 13.5 16.347656 "/>
<path style=" stroke:none;fill-rule:nonzero;fill:rgb(100%,100%,100%);fill-opacity:1;" d="M 21.027344 24 L 20.152344 24 C 16.433594 24 14.796875 22.753906 14.730469 22.699219 C 14.511719 22.527344 14.472656 22.214844 14.644531 21.996094 C 14.8125 21.777344 15.128906 21.738281 15.347656 21.910156 C 15.355469 21.921875 16.816406 23 20.152344 23 L 21.027344 23 C 21.722656 23 22.308594 22.503906 22.421875 21.820312 L 22.980469 18.472656 C 23.050781 18.058594 22.933594 17.644531 22.664062 17.324219 C 22.394531 17.007812 22.003906 16.824219 21.589844 16.824219 L 18.71875 16.824219 C 18.535156 16.824219 18.363281 16.722656 18.277344 16.5625 C 18.191406 16.398438 18.199219 16.203125 18.304688 16.046875 C 18.304688 16.042969 18.695312 15.425781 18.695312 14.410156 C 18.695312 13.382812 18.269531 13 18 13 C 17.921875 13 17.894531 13.011719 17.894531 13.011719 C 17.894531 13.015625 17.78125 13.160156 17.78125 13.933594 C 17.78125 15.886719 15.378906 17.191406 15.273438 17.246094 C 15.027344 17.378906 14.726562 17.285156 14.597656 17.039062 C 14.46875 16.796875 14.558594 16.496094 14.804688 16.363281 C 15.351562 16.070312 16.78125 15.054688 16.78125 13.933594 C 16.78125 13.257812 16.78125 12 18 12 C 18.816406 12 19.695312 12.753906 19.695312 14.414062 C 19.695312 14.984375 19.59375 15.464844 19.480469 15.824219 L 21.585938 15.824219 C 22.296875 15.824219 22.96875 16.136719 23.425781 16.679688 C 23.886719 17.222656 24.082031 17.933594 23.964844 18.636719 L 23.40625 21.984375 C 23.214844 23.152344 22.214844 24 21.027344 24 Z M 21.027344 24 "/>
<path style=" stroke:none;fill-rule:nonzero;fill:rgb(100%,100%,100%);fill-opacity:1;" d="M 9.5 21 L 2.5 21 C 1.121094 21 0 19.878906 0 18.5 L 0 5.5 C 0 4.121094 1.121094 3 2.5 3 L 4.5 3 C 4.777344 3 5 3.222656 5 3.5 C 5 3.777344 4.777344 4 4.5 4 L 2.5 4 C 1.671875 4 1 4.671875 1 5.5 L 1 18.5 C 1 19.328125 1.671875 20 2.5 20 L 9.5 20 C 9.777344 20 10 20.222656 10 20.5 C 10 20.777344 9.777344 21 9.5 21 Z M 9.5 21 "/>
<path style=" stroke:none;fill-rule:nonzero;fill:rgb(100%,100%,100%);fill-opacity:1;" d="M 11.5 6 L 5.5 6 C 4.671875 6 4 5.328125 4 4.5 L 4 2.5 C 4 2.222656 4.222656 2 4.5 2 L 6.050781 2 C 6.28125 0.859375 7.292969 0 8.5 0 C 9.707031 0 10.71875 0.859375 10.949219 2 L 12.5 2 C 12.777344 2 13 2.222656 13 2.5 L 13 4.5 C 13 5.328125 12.328125 6 11.5 6 Z M 5 3 L 5 4.5 C 5 4.773438 5.226562 5 5.5 5 L 11.5 5 C 11.773438 5 12 4.773438 12 4.5 L 12 3 L 10.5 3 C 10.222656 3 10 2.777344 10 2.5 C 10 1.671875 9.328125 1 8.5 1 C 7.671875 1 7 1.671875 7 2.5 C 7 2.777344 6.777344 3 6.5 3 Z M 5 3 "/>
<path style=" stroke:none;fill-rule:nonzero;fill:rgb(100%,100%,100%);fill-opacity:1;" d="M 13.5 9 L 3.5 9 C 3.222656 9 3 8.777344 3 8.5 C 3 8.222656 3.222656 8 3.5 8 L 13.5 8 C 13.777344 8 14 8.222656 14 8.5 C 14 8.777344 13.777344 9 13.5 9 Z M 13.5 9 "/>
<path style=" stroke:none;fill-rule:nonzero;fill:rgb(100%,100%,100%);fill-opacity:1;" d="M 13.5 12 L 3.5 12 C 3.222656 12 3 11.777344 3 11.5 C 3 11.222656 3.222656 11 3.5 11 L 13.5 11 C 13.777344 11 14 11.222656 14 11.5 C 14 11.777344 13.777344 12 13.5 12 Z M 13.5 12 "/>
<path style=" stroke:none;fill-rule:nonzero;fill:rgb(100%,100%,100%);fill-opacity:1;" d="M 9.5 15 L 3.5 15 C 3.222656 15 3 14.777344 3 14.5 C 3 14.222656 3.222656 14 3.5 14 L 9.5 14 C 9.777344 14 10 14.222656 10 14.5 C 10 14.777344 9.777344 15 9.5 15 Z M 9.5 15 "/>
<path style=" stroke:none;fill-rule:nonzero;fill:rgb(100%,100%,100%);fill-opacity:1;" d="M 16.5 10 C 16.222656 10 16 9.777344 16 9.5 L 16 5.5 C 16 4.671875 15.328125 4 14.5 4 L 12.5 4 C 12.222656 4 12 3.777344 12 3.5 C 12 3.222656 12.222656 3 12.5 3 L 14.5 3 C 15.878906 3 17 4.121094 17 5.5 L 17 9.5 C 17 9.777344 16.777344 10 16.5 10 Z M 16.5 10 "/>
</g>
</svg>
