<svg width="15" height="15" viewBox="0 0 15 15" fill="none" xmlns="http://www.w3.org/2000/svg">
<path d="M1.875 15H8.4375C8.95508 15 9.39697 14.8171 9.76318 14.4512C10.1294 14.0854 10.3125 13.6439 10.3125 13.1268V12.1902C10.3125 11.9268 10.2222 11.7049 10.0415 11.5244C9.86084 11.3439 9.64111 11.2537 9.38232 11.2537C9.12354 11.2537 8.90137 11.3439 8.71582 11.5244C8.53027 11.7049 8.4375 11.9244 8.4375 12.1829C8.4375 12.4415 8.34717 12.6634 8.1665 12.8488C7.98584 13.0341 7.76367 13.1268 7.5 13.1268H3.75C3.49609 13.1268 3.27637 13.0341 3.09082 12.8488C2.90527 12.6634 2.8125 12.4439 2.8125 12.1902V2.80976C2.8125 2.5561 2.90527 2.33659 3.09082 2.15122C3.27637 1.96585 3.49609 1.87317 3.75 1.87317H7.5C7.76367 1.87317 7.98584 1.96585 8.1665 2.15122C8.34717 2.33659 8.4375 2.55854 8.4375 2.81707C8.4375 3.07561 8.53027 3.29756 8.71582 3.48293C8.90137 3.66829 9.12354 3.76098 9.38232 3.76098C9.64111 3.76098 9.86084 3.66829 10.0415 3.48293C10.2222 3.29756 10.3125 3.07317 10.3125 2.80976V1.87317C10.3125 1.3561 10.1294 0.914634 9.76318 0.548781C9.39697 0.182927 8.95508 0 8.4375 0H1.875C1.35742 0 0.915527 0.182927 0.549316 0.548781C0.183105 0.914634 0 1.3561 0 1.87317V13.1268C0 13.6439 0.183105 14.0854 0.549316 14.4512C0.915527 14.8171 1.35742 15 1.875 15ZM4.6875 5.61951C4.43359 5.61951 4.21387 5.71219 4.02832 5.89756C3.84277 6.08293 3.75 6.30244 3.75 6.5561V8.4439C3.75 8.69756 3.84277 8.91707 4.02832 9.10244C4.21387 9.2878 4.43359 9.38049 4.6875 9.38049H11.25V10.8585C11.25 10.9659 11.3159 11.0585 11.4478 11.1366C11.5796 11.2146 11.7358 11.2488 11.9165 11.239C12.0972 11.2293 12.2412 11.1707 12.3486 11.0634L14.7363 8.13659C14.9121 7.96098 15 7.74878 15 7.5C15 7.25122 14.9121 7.03902 14.7363 6.86341L12.3486 3.93659C12.2412 3.82927 12.0972 3.77317 11.9165 3.76829C11.7358 3.76341 11.5796 3.8 11.4478 3.87805C11.3159 3.9561 11.25 4.05366 11.25 4.17073V5.61951H4.6875Z" fill="#C5C7CD"/>
</svg>
