<svg width="16" height="16" viewBox="0 0 16 16" fill="none" xmlns="http://www.w3.org/2000/svg">
<path d="M1.603 4.70721L8.0006 7.90561L14.3982 4.70721C14.3745 4.29957 14.1959 3.9164 13.8989 3.63619C13.6018 3.35598 13.2089 3.19994 12.8006 3.20001H3.2006C2.79227 3.19994 2.39936 3.35598 2.10234 3.63619C1.80533 3.9164 1.62668 4.29957 1.603 4.70721Z" fill="#C5C7CD"/>
<path d="M14.4 6.49445L8 9.69445L1.6 6.49445V11.2C1.6 11.6244 1.76857 12.0314 2.06863 12.3314C2.36869 12.6315 2.77565 12.8 3.2 12.8H12.8C13.2243 12.8 13.6313 12.6315 13.9314 12.3314C14.2314 12.0314 14.4 11.6244 14.4 11.2V6.49445Z" fill="#C5C7CD"/>
</svg>
