<svg width="17" height="12" viewBox="0 0 17 12" fill="none" xmlns="http://www.w3.org/2000/svg">
<path d="M3.86303 3.33335H13.0982V8.66669H3.86303V3.33335ZM15.407 6.00002C15.407 6.73641 16.0272 7.33335 16.7923 7.33335V10C16.7923 10.7364 16.1721 11.3334 15.407 11.3334H1.55423C0.789147 11.3334 0.168945 10.7364 0.168945 10V7.33335C0.934025 7.33335 1.55423 6.73641 1.55423 6.00002C1.55423 5.26363 0.934025 4.66669 0.168945 4.66669V2.00002C0.168945 1.26363 0.789147 0.666687 1.55423 0.666687H15.407C16.1721 0.666687 16.7923 1.26363 16.7923 2.00002V4.66669C16.0272 4.66669 15.407 5.26363 15.407 6.00002ZM14.0218 3.11113C14.0218 2.74294 13.7117 2.44446 13.3291 2.44446H3.63215C3.24961 2.44446 2.93951 2.74294 2.93951 3.11113V8.88891C2.93951 9.2571 3.24961 9.55557 3.63215 9.55557H13.3291C13.7117 9.55557 14.0218 9.2571 14.0218 8.88891V3.11113Z" fill="#FFC700"/>
</svg>
