<?xml version="1.0" encoding="UTF-8"?>
<svg xmlns="http://www.w3.org/2000/svg" xmlns:xlink="http://www.w3.org/1999/xlink" width="12pt" height="12pt" viewBox="0 0 12 12" version="1.1">
<g id="surface1">
<path style=" stroke:none;fill-rule:nonzero;fill:rgb(100%,78.039216%,0%);fill-opacity:1;" d="M 10.5 1.875 L 3.003906 1.875 C 2.589844 1.875 2.253906 2.210938 2.253906 2.625 C 2.253906 3.039062 2.589844 3.375 3.003906 3.375 L 10.5 3.375 C 10.914062 3.375 11.25 3.039062 11.25 2.625 C 11.25 2.210938 10.914062 1.875 10.5 1.875 Z M 10.5 1.875 "/>
<path style=" stroke:none;fill-rule:nonzero;fill:rgb(100%,78.039216%,0%);fill-opacity:1;" d="M 1.503906 2.625 C 1.503906 2.425781 1.421875 2.234375 1.28125 2.09375 C 0.988281 1.804688 0.519531 1.804688 0.226562 2.09375 C 0.0859375 2.234375 0.00390625 2.425781 0.00390625 2.625 C 0 2.671875 0 2.722656 0.00390625 2.769531 C 0.0117188 2.820312 0.0273438 2.867188 0.046875 2.914062 C 0.0664062 2.957031 0.0898438 3 0.117188 3.039062 C 0.144531 3.082031 0.175781 3.121094 0.210938 3.15625 C 0.246094 3.191406 0.28125 3.21875 0.324219 3.246094 C 0.363281 3.273438 0.40625 3.300781 0.449219 3.316406 C 0.5 3.34375 0.554688 3.363281 0.609375 3.375 C 0.65625 3.378906 0.707031 3.378906 0.753906 3.375 C 0.953125 3.375 1.140625 3.296875 1.28125 3.15625 C 1.316406 3.121094 1.347656 3.082031 1.375 3.039062 C 1.402344 3 1.425781 2.957031 1.449219 2.914062 C 1.472656 2.867188 1.492188 2.820312 1.503906 2.769531 C 1.507812 2.722656 1.507812 2.671875 1.503906 2.625 Z M 1.503906 2.625 "/>
<path style=" stroke:none;fill-rule:nonzero;fill:rgb(100%,78.039216%,0%);fill-opacity:1;" d="M 1.503906 5.996094 C 1.507812 5.949219 1.507812 5.898438 1.503906 5.851562 C 1.492188 5.804688 1.472656 5.757812 1.449219 5.714844 C 1.429688 5.667969 1.402344 5.621094 1.375 5.582031 C 1.351562 5.539062 1.320312 5.503906 1.28125 5.46875 C 0.988281 5.179688 0.519531 5.179688 0.226562 5.46875 C 0.0859375 5.609375 0.00390625 5.800781 0.00390625 5.996094 C 0.00390625 6.097656 0.0234375 6.195312 0.0585938 6.285156 C 0.078125 6.332031 0.101562 6.375 0.128906 6.414062 C 0.15625 6.453125 0.1875 6.492188 0.226562 6.527344 C 0.257812 6.5625 0.296875 6.59375 0.335938 6.621094 C 0.378906 6.648438 0.421875 6.671875 0.464844 6.691406 C 0.511719 6.710938 0.558594 6.722656 0.609375 6.734375 C 0.65625 6.742188 0.703125 6.75 0.753906 6.746094 C 0.800781 6.753906 0.851562 6.753906 0.898438 6.746094 C 0.949219 6.738281 0.996094 6.726562 1.039062 6.707031 C 1.085938 6.6875 1.128906 6.664062 1.171875 6.636719 C 1.210938 6.609375 1.25 6.578125 1.28125 6.542969 C 1.320312 6.507812 1.351562 6.46875 1.375 6.429688 C 1.40625 6.390625 1.429688 6.347656 1.449219 6.300781 C 1.472656 6.25 1.492188 6.199219 1.503906 6.144531 C 1.507812 6.09375 1.507812 6.046875 1.503906 5.996094 Z M 1.503906 5.996094 "/>
<path style=" stroke:none;fill-rule:nonzero;fill:rgb(100%,78.039216%,0%);fill-opacity:1;" d="M 1.503906 9.371094 C 1.507812 9.324219 1.507812 9.273438 1.503906 9.226562 C 1.492188 9.175781 1.472656 9.128906 1.449219 9.082031 C 1.425781 9.039062 1.402344 8.996094 1.375 8.957031 C 1.351562 8.914062 1.320312 8.875 1.28125 8.84375 C 0.988281 8.550781 0.519531 8.550781 0.226562 8.84375 C 0.1875 8.875 0.15625 8.914062 0.132812 8.957031 C 0.105469 8.996094 0.0820312 9.039062 0.0585938 9.082031 C 0.0390625 9.128906 0.0273438 9.175781 0.0195312 9.226562 C 0.0078125 9.273438 0.00390625 9.324219 0.00390625 9.371094 C 0.00390625 9.570312 0.0859375 9.761719 0.226562 9.898438 C 0.257812 9.9375 0.296875 9.96875 0.335938 9.992188 C 0.378906 10.023438 0.421875 10.046875 0.464844 10.066406 C 0.511719 10.085938 0.558594 10.097656 0.609375 10.105469 C 0.65625 10.117188 0.703125 10.121094 0.753906 10.121094 C 0.800781 10.128906 0.851562 10.128906 0.898438 10.121094 C 0.949219 10.113281 0.996094 10.097656 1.039062 10.082031 C 1.085938 10.0625 1.128906 10.039062 1.171875 10.007812 C 1.210938 9.984375 1.25 9.953125 1.28125 9.914062 C 1.320312 9.882812 1.351562 9.84375 1.375 9.804688 C 1.40625 9.761719 1.429688 9.71875 1.449219 9.675781 C 1.472656 9.625 1.492188 9.574219 1.503906 9.519531 C 1.507812 9.46875 1.507812 9.421875 1.503906 9.371094 Z M 1.503906 9.371094 "/>
<path style=" stroke:none;fill-rule:nonzero;fill:rgb(100%,78.039216%,0%);fill-opacity:1;" d="M 11.25 5.25 L 3.003906 5.25 C 2.589844 5.25 2.253906 5.582031 2.253906 5.996094 C 2.253906 6.410156 2.589844 6.746094 3.003906 6.746094 L 11.25 6.746094 C 11.664062 6.746094 12 6.410156 12 5.996094 C 12 5.582031 11.664062 5.25 11.25 5.25 Z M 11.25 5.25 "/>
<path style=" stroke:none;fill-rule:nonzero;fill:rgb(100%,78.039216%,0%);fill-opacity:1;" d="M 7.875 8.621094 L 3.003906 8.621094 C 2.589844 8.621094 2.253906 8.957031 2.253906 9.371094 C 2.253906 9.785156 2.589844 10.121094 3.003906 10.121094 L 7.875 10.121094 C 8.289062 10.121094 8.625 9.785156 8.625 9.371094 C 8.625 8.957031 8.289062 8.621094 7.875 8.621094 Z M 7.875 8.621094 "/>
</g>
</svg>
