<svg width="16" height="16" viewBox="0 0 16 16" fill="none" xmlns="http://www.w3.org/2000/svg">
<path d="M7.93748 9.75001C8.40161 9.75001 8.84673 9.56563 9.17492 9.23744C9.50311 8.90926 9.68748 8.46414 9.68748 8.00001C9.68748 7.94876 9.68514 7.89798 9.68076 7.84782L7.78529 9.74329C7.83545 9.74766 7.88607 9.75001 7.93748 9.75001ZM13.73 2.58688L13.0625 1.92001C13.039 1.89658 13.0073 1.88342 12.9741 1.88342C12.941 1.88342 12.9092 1.89658 12.8858 1.92001L11.1776 3.6286C10.2353 3.14704 9.17613 2.90626 7.99998 2.90626C4.99685 2.90626 2.75623 4.47032 1.2781 7.59844C1.21869 7.72425 1.18788 7.86166 1.18788 8.00079C1.18788 8.13992 1.21869 8.27732 1.2781 8.40313C1.86873 9.64719 2.57993 10.6443 3.4117 11.3945L1.75873 13.0469C1.73531 13.0703 1.72215 13.1021 1.72215 13.1352C1.72215 13.1684 1.73531 13.2002 1.75873 13.2236L2.42576 13.8906C2.4492 13.9141 2.48098 13.9272 2.51412 13.9272C2.54726 13.9272 2.57904 13.9141 2.60248 13.8906L13.73 2.76376C13.7416 2.75215 13.7508 2.73836 13.7571 2.72319C13.7634 2.70801 13.7666 2.69175 13.7666 2.67532C13.7666 2.65889 13.7634 2.64263 13.7571 2.62745C13.7508 2.61228 13.7416 2.59849 13.73 2.58688ZM5.18748 8.00001C5.18744 7.52502 5.31042 7.05811 5.54446 6.64478C5.7785 6.23145 6.1156 5.88578 6.52294 5.64146C6.93027 5.39713 7.39395 5.26248 7.86879 5.25061C8.34363 5.23875 8.81345 5.35008 9.23248 5.57376L8.47279 6.33344C8.16642 6.23534 7.83894 6.22353 7.52629 6.2993C7.21364 6.37506 6.92791 6.53549 6.70043 6.76296C6.47296 6.99043 6.31254 7.27617 6.23677 7.58882C6.161 7.90147 6.17282 8.22894 6.27092 8.53532L5.51123 9.29501C5.29804 8.89669 5.18681 8.45178 5.18748 8.00001Z" fill="#C5C7CD"/>
<path d="M14.722 7.59684C14.172 6.43851 13.5174 5.49397 12.7581 4.76324L10.5059 7.01559C10.6958 7.51186 10.7378 8.05249 10.6271 8.57216C10.5163 9.09183 10.2574 9.56831 9.88169 9.94403C9.50597 10.3197 9.02949 10.5786 8.50982 10.6894C7.99015 10.8002 7.44952 10.7581 6.95325 10.5682L5.04293 12.4786C5.92918 12.8887 6.91491 13.0937 8.00012 13.0937C11.0032 13.0937 13.2439 11.5297 14.722 8.40153C14.7814 8.27572 14.8122 8.13832 14.8122 7.99918C14.8122 7.86005 14.7814 7.72264 14.722 7.59684Z" fill="#C5C7CD"/>
</svg>
