<?xml version="1.0" encoding="UTF-8"?>
<svg xmlns="http://www.w3.org/2000/svg" xmlns:xlink="http://www.w3.org/1999/xlink" width="24pt" height="24pt" viewBox="0 0 24 24" version="1.1">
<g id="surface1">
<path style=" stroke:none;fill-rule:nonzero;fill:rgb(100%,100%,100%);fill-opacity:1;" d="M 21.503906 19.792969 L 20.429688 6.285156 C 20.363281 5.414062 19.628906 4.734375 18.757812 4.734375 L 16.640625 4.734375 L 16.640625 4.640625 C 16.640625 2.082031 14.558594 0 12 0 C 9.441406 0 7.359375 2.082031 7.359375 4.640625 L 7.359375 4.734375 L 5.242188 4.734375 C 4.371094 4.734375 3.636719 5.414062 3.570312 6.285156 L 2.496094 19.792969 C 2.414062 20.875 2.789062 21.953125 3.527344 22.746094 C 4.261719 23.542969 5.308594 24 6.394531 24 L 17.605469 24 C 18.691406 24 19.738281 23.542969 20.472656 22.746094 C 21.210938 21.953125 21.585938 20.875 21.503906 19.792969 Z M 8.765625 4.640625 C 8.765625 2.855469 10.21875 1.40625 12 1.40625 C 13.78125 1.40625 15.234375 2.855469 15.234375 4.640625 L 15.234375 4.734375 L 8.765625 4.734375 Z M 19.441406 21.792969 C 18.964844 22.308594 18.3125 22.59375 17.605469 22.59375 L 6.394531 22.59375 C 5.6875 22.59375 5.035156 22.308594 4.558594 21.792969 C 4.078125 21.273438 3.84375 20.605469 3.898438 19.902344 L 4.96875 6.394531 C 4.980469 6.25 5.101562 6.140625 5.242188 6.140625 L 7.359375 6.140625 L 7.359375 7.871094 C 7.359375 8.257812 7.675781 8.574219 8.0625 8.574219 C 8.453125 8.574219 8.765625 8.257812 8.765625 7.871094 L 8.765625 6.140625 L 15.234375 6.140625 L 15.234375 7.871094 C 15.234375 8.257812 15.546875 8.574219 15.9375 8.574219 C 16.324219 8.574219 16.640625 8.257812 16.640625 7.871094 L 16.640625 6.140625 L 18.757812 6.140625 C 18.898438 6.140625 19.019531 6.25 19.03125 6.394531 L 20.101562 19.902344 C 20.15625 20.605469 19.921875 21.273438 19.441406 21.792969 Z M 19.441406 21.792969 "/>
<path style=" stroke:none;fill-rule:nonzero;fill:rgb(100%,100%,100%);fill-opacity:1;" d="M 15.167969 11.917969 C 14.890625 11.644531 14.445312 11.644531 14.171875 11.917969 L 11.035156 15.058594 L 9.828125 13.851562 C 9.554688 13.578125 9.109375 13.578125 8.832031 13.851562 C 8.558594 14.125 8.558594 14.570312 8.832031 14.84375 L 10.539062 16.550781 C 10.675781 16.6875 10.855469 16.753906 11.035156 16.753906 C 11.214844 16.753906 11.394531 16.6875 11.53125 16.550781 L 15.167969 12.914062 C 15.441406 12.640625 15.441406 12.195312 15.167969 11.917969 Z M 15.167969 11.917969 "/>
</g>
</svg>
