<svg width="20" height="20" viewBox="0 0 20 20" fill="none" xmlns="http://www.w3.org/2000/svg">
<g clip-path="url(#clip0)">
<path fill-rule="evenodd" clip-rule="evenodd" d="M3.81282 16.1872C5.45376 17.8282 7.67936 18.75 10 18.75C12.3206 18.75 14.5462 17.8282 16.1872 16.1872C17.8281 14.5463 18.75 12.3207 18.75 10C18.75 7.6794 17.8281 5.4538 16.1872 3.81286C14.5462 2.17192 12.3206 1.25005 10 1.25005C7.67936 1.25005 5.45376 2.17192 3.81282 3.81286C2.17187 5.4538 1.25 7.6794 1.25 10C1.25 12.3207 2.17187 14.5463 3.81282 16.1872ZM2.92893 17.0711C4.8043 18.9465 7.34784 20 10 20C12.6522 20 15.1957 18.9465 17.0711 17.0711C18.9464 15.1957 20 12.6522 20 10C20 7.34788 18.9464 4.80434 17.0711 2.92898C15.1957 1.05361 12.6522 4.58802e-05 10 4.57116e-05C7.34784 4.58802e-05 4.8043 1.05361 2.92893 2.92898C1.05357 4.80434 5.11064e-09 7.34788 1.73698e-07 10C-1.63477e-07 12.6522 1.05357 15.1957 2.92893 17.0711Z" fill="#C5C7CD"/>
<path d="M11 4.10744C11 3.55516 10.5523 3.10744 9.99998 3.10744C9.44769 3.10744 8.99998 3.55516 8.99998 4.10744H11ZM8.99998 15.8926C8.99998 16.4448 9.44769 16.8926 9.99998 16.8926C10.5523 16.8926 11 16.4448 11 15.8926L8.99998 15.8926ZM4.10742 9C3.55514 9 3.10742 9.44772 3.10742 10C3.10742 10.5523 3.55514 11 4.10742 11L4.10742 9ZM15.8925 11C16.4448 11 16.8925 10.5523 16.8925 10C16.8925 9.44772 16.4448 9 15.8925 9L15.8925 11ZM8.99998 4.10744L8.99998 15.8926L11 15.8926L11 4.10744H8.99998ZM4.10742 11L15.8925 11L15.8925 9L4.10742 9L4.10742 11Z" fill="#C5C7CD"/>
</g>
<defs>
<clipPath id="clip0">
<rect width="20" height="20" fill="white"/>
</clipPath>
</defs>
</svg>
