<?xml version="1.0" encoding="UTF-8"?>
<svg xmlns="http://www.w3.org/2000/svg" xmlns:xlink="http://www.w3.org/1999/xlink" width="24pt" height="24pt" viewBox="0 0 24 24" version="1.1">
<g id="surface1">
<path style=" stroke:none;fill-rule:nonzero;fill:rgb(100%,100%,100%);fill-opacity:1;" d="M 18.070312 8.128906 L 14.769531 3.957031 C 14.210938 3.25 13.398438 2.785156 12.503906 2.652344 L 12.503906 0.5 C 12.503906 0.226562 12.277344 0 12.003906 0 C 11.726562 0 11.5 0.226562 11.5 0.5 L 11.5 2.652344 C 10.609375 2.777344 9.796875 3.246094 9.238281 3.957031 L 5.929688 8.136719 C 5.644531 8.5 5.480469 8.953125 5.480469 9.417969 L 5.480469 21.953125 C 5.488281 23.085938 6.410156 24.003906 7.542969 24 C 7.546875 24 7.546875 24 7.554688 24 L 16.445312 24 C 17.578125 24.011719 18.507812 23.097656 18.519531 21.964844 C 18.519531 21.957031 18.519531 21.957031 18.519531 21.953125 L 18.519531 9.417969 C 18.519531 8.953125 18.355469 8.5 18.070312 8.128906 Z M 12.003906 7.542969 C 12.808594 7.542969 13.460938 8.195312 13.460938 9.003906 C 13.460938 9.8125 12.808594 10.460938 12.003906 10.460938 C 11.195312 10.460938 10.542969 9.8125 10.542969 9.003906 C 10.542969 8.199219 11.195312 7.542969 12.003906 7.542969 Z M 17.519531 21.953125 C 17.519531 22.539062 17.039062 22.996094 16.453125 22.996094 L 7.554688 22.996094 C 6.964844 22.996094 6.484375 22.539062 6.484375 21.953125 L 6.484375 9.417969 C 6.484375 9.179688 6.566406 8.941406 6.714844 8.757812 L 10.019531 4.578125 C 10.390625 4.113281 10.914062 3.785156 11.5 3.671875 L 11.5 6.589844 C 10.167969 6.867188 9.3125 8.171875 9.589844 9.503906 C 9.867188 10.839844 11.167969 11.691406 12.503906 11.414062 C 13.839844 11.140625 14.691406 9.835938 14.414062 8.5 C 14.214844 7.542969 13.46875 6.792969 12.503906 6.589844 L 12.503906 3.671875 C 12.710938 3.710938 12.910156 3.78125 13.101562 3.871094 C 13.441406 4.039062 13.742188 4.277344 13.980469 4.578125 L 17.289062 8.753906 C 17.441406 8.941406 17.519531 9.179688 17.519531 9.417969 Z M 17.519531 21.953125 "/>
<path style=" stroke:none;fill-rule:nonzero;fill:rgb(100%,100%,100%);fill-opacity:1;" d="M 13.601562 18.292969 C 13.382812 17.59375 12.734375 17.117188 12.003906 17.117188 C 11.632812 17.117188 11.332031 16.816406 11.332031 16.445312 C 11.332031 16.074219 11.632812 15.773438 12.003906 15.773438 C 12.375 15.773438 12.675781 16.074219 12.675781 16.445312 C 12.675781 16.722656 12.898438 16.949219 13.175781 16.949219 C 13.453125 16.949219 13.679688 16.722656 13.679688 16.445312 C 13.679688 15.714844 13.203125 15.066406 12.503906 14.847656 L 12.503906 14.625 C 12.503906 14.351562 12.277344 14.125 12.003906 14.125 C 11.726562 14.125 11.5 14.351562 11.5 14.625 L 11.5 14.847656 C 10.617188 15.121094 10.125 16.066406 10.402344 16.949219 C 10.625 17.644531 11.269531 18.121094 12.003906 18.121094 C 12.375 18.121094 12.675781 18.421875 12.675781 18.792969 C 12.675781 19.164062 12.375 19.464844 12.003906 19.464844 C 11.632812 19.464844 11.332031 19.164062 11.332031 18.792969 C 11.332031 18.519531 11.105469 18.292969 10.828125 18.292969 C 10.554688 18.292969 10.328125 18.519531 10.328125 18.792969 C 10.328125 19.527344 10.804688 20.171875 11.5 20.394531 L 11.5 20.644531 C 11.5 20.921875 11.726562 21.144531 12.003906 21.144531 C 12.277344 21.144531 12.503906 20.921875 12.503906 20.644531 L 12.503906 20.394531 C 13.386719 20.117188 13.878906 19.175781 13.601562 18.292969 Z M 13.601562 18.292969 "/>
</g>
</svg>
