<svg width="24" height="24" viewBox="0 0 24 24" fill="none" xmlns="http://www.w3.org/2000/svg">
<path fill-rule="evenodd" clip-rule="evenodd" d="M13.4703 6.969C13.54 6.89915 13.6228 6.84374 13.7139 6.80593C13.805 6.76812 13.9027 6.74866 14.0013 6.74866C14.1 6.74866 14.1977 6.76812 14.2888 6.80593C14.3799 6.84374 14.4627 6.89915 14.5323 6.969L19.0323 11.469C19.1022 11.5387 19.1576 11.6214 19.1954 11.7125C19.2332 11.8037 19.2527 11.9013 19.2527 12C19.2527 12.0986 19.2332 12.1963 19.1954 12.2874C19.1576 12.3786 19.1022 12.4613 19.0323 12.531L14.5323 17.031C14.3915 17.1718 14.2005 17.2509 14.0013 17.2509C13.8022 17.2509 13.6112 17.1718 13.4703 17.031C13.3295 16.8902 13.2504 16.6992 13.2504 16.5C13.2504 16.3008 13.3295 16.1098 13.4703 15.969L17.4408 12L13.4703 8.031C13.4005 7.96133 13.3451 7.87857 13.3073 7.78745C13.2695 7.69633 13.25 7.59865 13.25 7.5C13.25 7.40135 13.2695 7.30366 13.3073 7.21255C13.3451 7.12143 13.4005 7.03867 13.4703 6.969Z" fill="black"/>
<path fill-rule="evenodd" clip-rule="evenodd" d="M6 12C6 11.8011 6.07902 11.6103 6.21967 11.4697C6.36032 11.329 6.55109 11.25 6.75 11.25H16.5C16.6989 11.25 16.8897 11.329 17.0303 11.4697C17.171 11.6103 17.25 11.8011 17.25 12C17.25 12.1989 17.171 12.3897 17.0303 12.5303C16.8897 12.671 16.6989 12.75 16.5 12.75H6.75C6.55109 12.75 6.36032 12.671 6.21967 12.5303C6.07902 12.3897 6 12.1989 6 12Z" fill="black"/>
</svg>
