<?xml version="1.0" encoding="UTF-8"?>
<svg xmlns="http://www.w3.org/2000/svg" xmlns:xlink="http://www.w3.org/1999/xlink" width="24pt" height="24pt" viewBox="0 0 24 24" version="1.1">
<g id="surface1">
<path style=" stroke:none;fill-rule:nonzero;fill:rgb(100%,100%,100%);fill-opacity:1;" d="M 22.167969 10.5 L 21 10.5 C 20.863281 10.003906 20.417969 9.660156 19.902344 9.65625 L 18.65625 9.65625 L 18.65625 6.609375 C 18.660156 6.492188 18.601562 6.382812 18.496094 6.324219 L 9.707031 1.246094 C 9.605469 1.1875 9.480469 1.1875 9.378906 1.246094 L 0.585938 6.324219 C 0.484375 6.382812 0.421875 6.492188 0.421875 6.609375 L 0.421875 16.765625 C 0.421875 16.882812 0.484375 16.992188 0.585938 17.050781 L 9.378906 22.128906 C 9.429688 22.15625 9.488281 22.171875 9.542969 22.171875 C 9.605469 22.171875 9.660156 22.15625 9.714844 22.128906 L 14.34375 19.457031 L 14.34375 21.390625 C 14.34375 21.757812 14.488281 22.117188 14.753906 22.378906 C 15.019531 22.636719 15.375 22.785156 15.746094 22.78125 L 22.167969 22.78125 C 22.542969 22.785156 22.898438 22.640625 23.160156 22.378906 C 23.429688 22.117188 23.578125 21.761719 23.578125 21.390625 L 23.578125 11.914062 C 23.578125 11.136719 22.949219 10.503906 22.167969 10.5 Z M 19.914062 10.3125 C 20.175781 10.3125 20.390625 10.527344 20.390625 10.789062 L 20.390625 10.820312 C 20.390625 11.082031 20.175781 11.296875 19.914062 11.296875 L 18.007812 11.296875 C 17.746094 11.296875 17.53125 11.082031 17.53125 10.820312 L 17.53125 10.789062 C 17.53125 10.527344 17.746094 10.3125 18.007812 10.3125 Z M 9.542969 1.90625 L 13.199219 4.019531 L 5.0625 8.71875 L 1.40625 6.609375 Z M 9.234375 21.277344 L 1.078125 16.574219 L 1.078125 7.175781 L 9.234375 11.878906 Z M 9.542969 11.308594 L 5.71875 9.097656 L 13.855469 4.398438 L 17.6875 6.609375 Z M 14.34375 11.914062 L 14.34375 18.699219 L 9.890625 21.277344 L 9.890625 11.878906 L 18 7.175781 L 18 9.65625 L 18.007812 9.65625 C 17.496094 9.660156 17.046875 10.003906 16.914062 10.5 L 15.746094 10.5 C 14.96875 10.503906 14.339844 11.136719 14.34375 11.914062 Z M 22.921875 21.390625 C 22.921875 21.585938 22.839844 21.777344 22.699219 21.914062 C 22.558594 22.050781 22.363281 22.128906 22.167969 22.125 L 15.746094 22.125 C 15.546875 22.128906 15.355469 22.050781 15.214844 21.914062 C 15.074219 21.773438 15 21.585938 15 21.390625 L 15 11.914062 C 14.996094 11.714844 15.074219 11.523438 15.214844 11.382812 C 15.355469 11.238281 15.542969 11.160156 15.746094 11.15625 L 16.925781 11.15625 C 17.070312 11.632812 17.511719 11.957031 18.007812 11.953125 L 19.902344 11.953125 C 20.402344 11.957031 20.839844 11.632812 20.988281 11.15625 L 22.167969 11.15625 C 22.585938 11.160156 22.921875 11.5 22.921875 11.914062 Z M 22.921875 21.390625 "/>
<path style=" stroke:none;fill-rule:nonzero;fill:rgb(100%,100%,100%);fill-opacity:1;" d="M 16.121094 15.234375 L 16.464844 15.234375 C 16.644531 15.234375 16.792969 15.089844 16.792969 14.90625 C 16.792969 14.722656 16.644531 14.578125 16.464844 14.578125 L 16.453125 14.578125 L 16.453125 13.6875 L 17.359375 13.6875 C 17.398438 13.824219 17.527344 13.914062 17.667969 13.910156 C 17.851562 13.910156 18 13.761719 18 13.582031 L 18 13.363281 C 17.996094 13.175781 17.851562 13.03125 17.667969 13.03125 L 16.121094 13.03125 C 16.035156 13.03125 15.953125 13.066406 15.890625 13.128906 C 15.828125 13.191406 15.796875 13.273438 15.796875 13.363281 L 15.796875 14.90625 C 15.796875 14.996094 15.828125 15.074219 15.890625 15.136719 C 15.953125 15.199219 16.035156 15.234375 16.121094 15.234375 Z M 16.121094 15.234375 "/>
<path style=" stroke:none;fill-rule:nonzero;fill:rgb(100%,100%,100%);fill-opacity:1;" d="M 16.125 18.234375 L 17.671875 18.234375 C 17.855469 18.234375 18 18.089844 18 17.90625 L 18 16.359375 C 18 16.175781 17.855469 16.03125 17.671875 16.03125 L 16.125 16.03125 C 15.941406 16.03125 15.796875 16.175781 15.796875 16.359375 L 15.796875 17.90625 C 15.796875 18.089844 15.941406 18.234375 16.125 18.234375 Z M 16.453125 16.6875 L 17.34375 16.6875 L 17.34375 17.578125 L 16.453125 17.578125 Z M 16.453125 16.6875 "/>
<path style=" stroke:none;fill-rule:nonzero;fill:rgb(100%,100%,100%);fill-opacity:1;" d="M 16.464844 20.578125 L 16.453125 20.578125 L 16.453125 19.6875 L 17.339844 19.6875 C 17.34375 19.867188 17.488281 20.011719 17.667969 20.011719 C 17.851562 20.011719 17.996094 19.867188 18 19.6875 L 18 19.371094 C 18 19.1875 17.855469 19.035156 17.667969 19.03125 L 16.121094 19.03125 C 15.941406 19.035156 15.792969 19.191406 15.796875 19.371094 L 15.796875 20.917969 C 15.796875 21.003906 15.832031 21.085938 15.894531 21.144531 C 15.957031 21.207031 16.035156 21.238281 16.121094 21.234375 L 16.464844 21.234375 C 16.644531 21.234375 16.792969 21.089844 16.792969 20.90625 C 16.792969 20.722656 16.644531 20.578125 16.464844 20.578125 Z M 16.464844 20.578125 "/>
<path style=" stroke:none;fill-rule:nonzero;fill:rgb(100%,100%,100%);fill-opacity:1;" d="M 18.425781 13.433594 L 17.464844 14.394531 L 17.171875 14.105469 C 17.042969 13.972656 16.832031 13.972656 16.707031 14.105469 C 16.578125 14.230469 16.578125 14.4375 16.707031 14.566406 L 17.230469 15.089844 C 17.359375 15.21875 17.566406 15.21875 17.695312 15.089844 L 18.886719 13.898438 C 19.015625 13.769531 19.015625 13.5625 18.886719 13.433594 C 18.757812 13.308594 18.550781 13.308594 18.425781 13.433594 Z M 18.425781 13.433594 "/>
<path style=" stroke:none;fill-rule:nonzero;fill:rgb(100%,100%,100%);fill-opacity:1;" d="M 18.425781 19.492188 L 17.464844 20.453125 L 17.171875 20.160156 C 17.042969 20.035156 16.832031 20.035156 16.707031 20.160156 C 16.578125 20.289062 16.578125 20.496094 16.707031 20.625 L 17.230469 21.148438 C 17.359375 21.277344 17.566406 21.277344 17.695312 21.148438 L 18.886719 19.957031 C 19.015625 19.828125 19.015625 19.621094 18.886719 19.492188 C 18.757812 19.363281 18.550781 19.363281 18.425781 19.492188 Z M 18.425781 19.492188 "/>
<path style=" stroke:none;fill-rule:nonzero;fill:rgb(100%,100%,100%);fill-opacity:1;" d="M 21.792969 13.828125 L 19.730469 13.828125 C 19.546875 13.828125 19.402344 13.972656 19.402344 14.15625 C 19.402344 14.339844 19.546875 14.484375 19.730469 14.484375 L 21.792969 14.484375 C 21.972656 14.484375 22.121094 14.339844 22.121094 14.15625 C 22.121094 13.972656 21.972656 13.828125 21.792969 13.828125 Z M 21.792969 13.828125 "/>
<path style=" stroke:none;fill-rule:nonzero;fill:rgb(100%,100%,100%);fill-opacity:1;" d="M 21.792969 16.828125 L 19.730469 16.828125 C 19.546875 16.828125 19.402344 16.972656 19.402344 17.15625 C 19.402344 17.339844 19.546875 17.484375 19.730469 17.484375 L 21.792969 17.484375 C 21.972656 17.484375 22.121094 17.339844 22.121094 17.15625 C 22.121094 16.972656 21.972656 16.828125 21.792969 16.828125 Z M 21.792969 16.828125 "/>
<path style=" stroke:none;fill-rule:nonzero;fill:rgb(100%,100%,100%);fill-opacity:1;" d="M 21.792969 19.828125 L 19.730469 19.828125 C 19.546875 19.828125 19.402344 19.972656 19.402344 20.15625 C 19.402344 20.339844 19.546875 20.484375 19.730469 20.484375 L 21.792969 20.484375 C 21.972656 20.484375 22.121094 20.339844 22.121094 20.15625 C 22.121094 19.972656 21.972656 19.828125 21.792969 19.828125 Z M 21.792969 19.828125 "/>
</g>
</svg>
