<?xml version="1.0" encoding="UTF-8"?>
<svg xmlns="http://www.w3.org/2000/svg" xmlns:xlink="http://www.w3.org/1999/xlink" width="24pt" height="24pt" viewBox="0 0 24 24" version="1.1">
<g id="surface1">
<path style=" stroke:none;fill-rule:nonzero;fill:rgb(100%,100%,100%);fill-opacity:1;" d="M 20.484375 3.515625 C 18.21875 1.25 15.207031 0 12 0 C 8.792969 0 5.78125 1.25 3.515625 3.515625 C 1.25 5.78125 0 8.792969 0 12 C 0 15.207031 1.25 18.21875 3.515625 20.484375 C 5.78125 22.75 8.792969 24 12 24 C 15.207031 24 18.21875 22.75 20.484375 20.484375 C 22.75 18.21875 24 15.207031 24 12 C 24 8.792969 22.75 5.78125 20.484375 3.515625 Z M 12 22.59375 C 6.160156 22.59375 1.40625 17.839844 1.40625 12 C 1.40625 6.160156 6.160156 1.40625 12 1.40625 C 17.839844 1.40625 22.59375 6.160156 22.59375 12 C 22.59375 17.839844 17.839844 22.59375 12 22.59375 Z M 12 22.59375 "/>
<path style=" stroke:none;fill-rule:nonzero;fill:rgb(100%,100%,100%);fill-opacity:1;" d="M 19.699219 9.414062 C 19.617188 9.15625 19.398438 8.972656 19.132812 8.933594 L 14.640625 8.28125 L 12.628906 4.210938 C 12.511719 3.96875 12.269531 3.816406 12 3.816406 C 11.734375 3.816406 11.488281 3.96875 11.371094 4.210938 L 9.359375 8.28125 L 4.867188 8.933594 C 4.601562 8.972656 4.382812 9.15625 4.300781 9.414062 C 4.21875 9.667969 4.285156 9.945312 4.476562 10.132812 L 7.730469 13.300781 L 6.960938 17.777344 C 6.917969 18.039062 7.023438 18.308594 7.242188 18.464844 C 7.457031 18.621094 7.746094 18.640625 7.980469 18.515625 L 12 16.40625 L 16.019531 18.515625 C 16.121094 18.570312 16.234375 18.597656 16.34375 18.597656 C 16.492188 18.597656 16.636719 18.554688 16.757812 18.464844 C 16.976562 18.308594 17.082031 18.039062 17.039062 17.777344 L 16.269531 13.300781 L 19.523438 10.132812 C 19.714844 9.945312 19.78125 9.667969 19.699219 9.414062 Z M 15.023438 12.554688 C 14.859375 12.714844 14.785156 12.945312 14.824219 13.175781 L 15.410156 16.609375 L 12.328125 14.988281 C 12.226562 14.933594 12.113281 14.90625 12 14.90625 C 11.886719 14.90625 11.773438 14.933594 11.671875 14.988281 L 8.589844 16.609375 L 9.175781 13.175781 C 9.214844 12.945312 9.140625 12.714844 8.976562 12.554688 L 6.480469 10.121094 L 9.929688 9.621094 C 10.15625 9.585938 10.355469 9.441406 10.457031 9.234375 L 12 6.109375 L 13.542969 9.234375 C 13.644531 9.441406 13.84375 9.585938 14.070312 9.621094 L 17.519531 10.121094 Z M 15.023438 12.554688 "/>
</g>
</svg>
