<svg width="13" height="13" viewBox="0 0 13 13" fill="none" xmlns="http://www.w3.org/2000/svg">
<path d="M12.2517 4.16958L8.83042 0.748333C8.43228 0.349705 7.89215 0.125496 7.32875 0.125H2.25C1.68641 0.125 1.14591 0.348883 0.747398 0.747398C0.348883 1.14591 0.125 1.68641 0.125 2.25V10.75C0.125 11.3136 0.348883 11.8541 0.747398 12.2526C1.14591 12.6511 1.68641 12.875 2.25 12.875H10.75C11.3136 12.875 11.8541 12.6511 12.2526 12.2526C12.6511 11.8541 12.875 11.3136 12.875 10.75V5.67125C12.8745 5.10785 12.6503 4.56772 12.2517 4.16958ZM5.08333 11.4583V10.0417H7.91667V11.4583H5.08333ZM11.4583 10.75C11.4583 10.9379 11.3837 11.118 11.2509 11.2509C11.118 11.3837 10.9379 11.4583 10.75 11.4583H9.33333V9.33333C9.33333 9.14547 9.25871 8.9653 9.12587 8.83247C8.99303 8.69963 8.81286 8.625 8.625 8.625H4.375C4.18714 8.625 4.00697 8.69963 3.87413 8.83247C3.74129 8.9653 3.66667 9.14547 3.66667 9.33333V11.4583H2.25C2.06214 11.4583 1.88197 11.3837 1.74913 11.2509C1.61629 11.118 1.54167 10.9379 1.54167 10.75V2.25C1.54167 2.06214 1.61629 1.88197 1.74913 1.74913C1.88197 1.61629 2.06214 1.54167 2.25 1.54167H3.66667V5.08333C3.66667 5.27119 3.74129 5.45136 3.87413 5.5842C4.00697 5.71704 4.18714 5.79167 4.375 5.79167H7.20833C7.39619 5.79167 7.57636 5.71704 7.7092 5.5842C7.84204 5.45136 7.91667 5.27119 7.91667 5.08333C7.91667 4.89547 7.84204 4.7153 7.7092 4.58247C7.57636 4.44963 7.39619 4.375 7.20833 4.375H5.08333V1.54167H7.32875C7.51629 1.54428 7.69593 1.61765 7.83167 1.74708L11.2529 5.16833C11.3186 5.23452 11.3705 5.31301 11.4058 5.39932C11.441 5.48562 11.4589 5.57803 11.4583 5.67125V10.75Z" fill="#fff"/>
</svg>
