<svg width="13" height="13" viewBox="0 0 13 13" fill="none" xmlns="http://www.w3.org/2000/svg">
<path fill-rule="evenodd" clip-rule="evenodd" d="M9.44914 9.02106C10.2285 8.01628 10.5958 6.75233 10.4763 5.48635C10.3569 4.22036 9.75957 3.04745 8.80599 2.20622C7.85241 1.36498 6.61416 0.918631 5.34316 0.957961C4.07216 0.997291 2.86388 1.51935 1.96414 2.41793C1.06361 3.31714 0.539847 4.52588 0.499577 5.79785C0.459307 7.06981 0.905564 8.30927 1.74741 9.26363C2.58925 10.218 3.76333 10.8155 5.03037 10.9342C6.29742 11.053 7.56208 10.6842 8.56664 9.90293L8.59352 9.93106L11.2448 12.5829C11.3028 12.641 11.3718 12.6871 11.4476 12.7185C11.5235 12.7499 11.6048 12.7661 11.687 12.7661C11.7691 12.7661 11.8504 12.7499 11.9263 12.7185C12.0021 12.6871 12.0711 12.641 12.1291 12.5829C12.1872 12.5249 12.2333 12.4559 12.2647 12.3801C12.2961 12.3042 12.3123 12.2229 12.3123 12.1407C12.3123 12.0586 12.2961 11.9773 12.2647 11.9014C12.2333 11.8256 12.1872 11.7566 12.1291 11.6986L9.47727 9.04731C9.46813 9.0383 9.45876 9.02955 9.44914 9.02106ZM8.15164 3.30231C8.50452 3.64948 8.78516 4.06309 8.97739 4.51927C9.16962 4.97545 9.26963 5.46517 9.27164 5.96019C9.27366 6.45522 9.17764 6.94574 8.98913 7.40347C8.80063 7.8612 8.52336 8.27708 8.17332 8.62711C7.82329 8.97715 7.40741 9.25442 6.94968 9.44293C6.49195 9.63143 6.00143 9.72745 5.5064 9.72543C5.01138 9.72342 4.52165 9.62341 4.06548 9.43118C3.6093 9.23895 3.19569 8.95831 2.84852 8.60543C2.15471 7.90024 1.76768 6.94946 1.7717 5.96019C1.77573 4.97093 2.1705 4.02333 2.87002 3.32381C3.56954 2.62429 4.51714 2.22952 5.5064 2.22549C6.49567 2.22147 7.44645 2.60851 8.15164 3.30231Z" fill="#9FA2B4"/>
</svg>
