<svg width="16" height="16" viewBox="0 0 16 16" fill="none" xmlns="http://www.w3.org/2000/svg">
<path d="M1.12857 11.7316L3.31563 13.8745C3.48647 14.0419 3.7636 14.0418 3.93434 13.8745L6.12132 11.7316C6.39667 11.4619 6.20059 11 5.81195 11H4.5V2.42857C4.5 2.19187 4.30414 2 4.0625 2H3.1875C2.94586 2 2.75 2.19187 2.75 2.42857V11H1.43794C1.04853 11 0.853791 11.4624 1.12857 11.7316ZM7.5625 12.2857H14.5625C14.8041 12.2857 15 12.4776 15 12.7143V13.5714C15 13.8081 14.8041 14 14.5625 14H7.5625C7.32086 14 7.125 13.8081 7.125 13.5714V12.7143C7.125 12.4776 7.32086 12.2857 7.5625 12.2857ZM7.125 9.28571V10.1428C7.125 10.3796 7.32086 10.5714 7.5625 10.5714H12.8125C13.0541 10.5714 13.25 10.3796 13.25 10.1428V9.28571C13.25 9.049 13.0541 8.85713 12.8125 8.85713H7.5625C7.32086 8.85713 7.125 9.049 7.125 9.28571ZM7.125 2.42857V3.28571C7.125 3.52242 7.32086 3.71428 7.5625 3.71428H9.3125C9.55414 3.71428 9.75 3.52242 9.75 3.28571V2.42857C9.75 2.19187 9.55414 2 9.3125 2H7.5625C7.32086 2 7.125 2.19187 7.125 2.42857ZM7.125 5.85714V6.71428C7.125 6.95099 7.32086 7.14285 7.5625 7.14285H11.0625C11.3041 7.14285 11.5 6.95099 11.5 6.71428V5.85714C11.5 5.62043 11.3041 5.42857 11.0625 5.42857H7.5625C7.32086 5.42857 7.125 5.62043 7.125 5.85714Z" fill="#C5C7CD"/>
</svg>
