<svg width="20" height="20" viewBox="0 0 20 20" fill="none" xmlns="http://www.w3.org/2000/svg">
<path fill-rule="evenodd" clip-rule="evenodd" d="M10 18.75C12.3206 18.75 14.5462 17.8281 16.1872 16.1872C17.8281 14.5462 18.75 12.3206 18.75 10C18.75 7.67936 17.8281 5.45376 16.1872 3.81282C14.5462 2.17187 12.3206 1.25 10 1.25C7.67936 1.25 5.45376 2.17187 3.81282 3.81282C2.17187 5.45376 1.25 7.67936 1.25 10C1.25 12.3206 2.17187 14.5462 3.81282 16.1872C5.45376 17.8281 7.67936 18.75 10 18.75ZM10 20C12.6522 20 15.1957 18.9464 17.0711 17.0711C18.9464 15.1957 20 12.6522 20 10C20 7.34784 18.9464 4.8043 17.0711 2.92893C15.1957 1.05357 12.6522 0 10 0C7.34784 0 4.8043 1.05357 2.92893 2.92893C1.05357 4.8043 0 7.34784 0 10C0 12.6522 1.05357 15.1957 2.92893 17.0711C4.8043 18.9464 7.34784 20 10 20Z" fill="#22B646"/>
<path fill-rule="evenodd" clip-rule="evenodd" d="M13.7125 6.21261C13.8874 6.0392 14.1236 5.9416 14.3699 5.94092C14.6162 5.94024 14.8529 6.03653 15.0288 6.20897C15.2047 6.38142 15.3056 6.61616 15.3098 6.86244C15.314 7.10873 15.2211 7.34677 15.0512 7.52511L10.0612 13.7626C9.97544 13.855 9.87194 13.9291 9.75687 13.9806C9.6418 14.032 9.51754 14.0597 9.39152 14.0621C9.26549 14.0644 9.14029 14.0413 9.0234 13.9941C8.90651 13.947 8.80033 13.8767 8.7112 13.7876L5.40495 10.4801C5.31284 10.3943 5.23897 10.2908 5.18773 10.1758C5.13649 10.0608 5.10893 9.93664 5.10671 9.81076C5.10449 9.68488 5.12765 9.55984 5.1748 9.44311C5.22195 9.32637 5.29213 9.22033 5.38116 9.13131C5.47018 9.04228 5.57622 8.9721 5.69296 8.92495C5.80969 8.8778 5.93473 8.85465 6.06061 8.85687C6.18649 8.85909 6.31063 8.88664 6.42563 8.93788C6.54063 8.98912 6.64413 9.063 6.72995 9.15511L9.34746 11.7714L13.6887 6.24011C13.6965 6.23042 13.7048 6.22124 13.7137 6.21261H13.7125Z" fill="#22B646"/>
</svg>
