<?xml version="1.0" encoding="UTF-8"?>
<svg xmlns="http://www.w3.org/2000/svg" xmlns:xlink="http://www.w3.org/1999/xlink" width="18pt" height="18pt" viewBox="0 0 18 18" version="1.1">
<g id="surface1">
<path style=" stroke:none;fill-rule:nonzero;fill:rgb(100%,100%,100%);fill-opacity:1;" d="M 5.203125 13.335938 C 4.417969 13.296875 4.433594 12.1875 5.203125 12.152344 C 7.390625 12.160156 13.152344 12.152344 15.410156 12.15625 C 16.023438 12.15625 16.554688 11.734375 16.691406 11.132812 L 17.972656 5.589844 C 18.046875 5.269531 17.972656 4.941406 17.769531 4.6875 C 17.566406 4.433594 17.265625 4.28125 16.9375 4.28125 C 16.03125 4.28125 8.332031 4.25 4.386719 4.234375 L 3.761719 1.914062 C 3.609375 1.359375 3.105469 0.972656 2.53125 0.972656 L 0.527344 0.972656 C 0.234375 0.972656 0 1.207031 0 1.5 C 0 1.789062 0.234375 2.027344 0.527344 2.027344 L 2.53125 2.027344 C 2.628906 2.027344 2.714844 2.09375 2.742188 2.1875 L 5.144531 11.097656 C 4.722656 11.113281 4.328125 11.285156 4.03125 11.585938 C 3.714844 11.90625 3.546875 12.324219 3.554688 12.773438 C 3.570312 13.664062 4.308594 14.390625 5.203125 14.390625 L 5.972656 14.390625 C 5.859375 14.628906 5.792969 14.898438 5.792969 15.183594 C 5.792969 16.199219 6.621094 17.027344 7.640625 17.027344 C 8.660156 17.027344 9.488281 16.199219 9.488281 15.183594 C 9.488281 14.898438 9.421875 14.628906 9.308594 14.390625 L 12.640625 14.390625 C 12.527344 14.628906 12.460938 14.898438 12.460938 15.183594 C 12.460938 16.199219 13.289062 17.027344 14.308594 17.027344 C 15.328125 17.027344 16.15625 16.199219 16.15625 15.183594 C 16.15625 14.886719 16.085938 14.609375 15.964844 14.363281 C 16.171875 14.292969 16.324219 14.09375 16.324219 13.863281 C 16.324219 13.570312 16.085938 13.335938 15.796875 13.335938 Z M 8.433594 15.183594 C 8.433594 15.617188 8.078125 15.972656 7.640625 15.972656 C 7.203125 15.972656 6.847656 15.617188 6.847656 15.183594 C 6.847656 14.746094 7.203125 14.390625 7.640625 14.390625 C 8.078125 14.390625 8.433594 14.746094 8.433594 15.183594 Z M 14.308594 15.972656 C 13.871094 15.972656 13.515625 15.617188 13.515625 15.183594 C 13.515625 14.75 13.867188 14.398438 14.296875 14.390625 L 14.320312 14.390625 C 14.753906 14.398438 15.101562 14.75 15.101562 15.183594 C 15.101562 15.617188 14.746094 15.972656 14.308594 15.972656 Z M 16.941406 5.34375 C 16.945312 5.347656 16.945312 5.347656 16.945312 5.351562 L 16.40625 7.6875 L 14.578125 7.6875 L 14.886719 5.332031 L 16.933594 5.339844 C 16.9375 5.339844 16.9375 5.339844 16.941406 5.34375 Z M 11.503906 11.097656 L 11.503906 8.742188 L 13.375 8.742188 L 13.0625 11.097656 Z M 8.886719 11.097656 L 8.574219 8.742188 L 10.449219 8.742188 L 10.449219 11.097656 Z M 6.457031 11.097656 C 6.328125 11.097656 6.214844 11.011719 6.179688 10.890625 L 5.601562 8.742188 L 7.507812 8.742188 L 7.820312 11.097656 Z M 8.433594 7.6875 L 8.113281 5.304688 L 10.445312 5.3125 L 10.445312 7.6875 Z M 11.503906 7.6875 L 11.503906 5.316406 L 13.824219 5.324219 L 13.511719 7.6875 Z M 7.050781 5.296875 L 7.367188 7.6875 L 5.316406 7.6875 L 4.671875 5.289062 Z M 15.410156 11.097656 L 14.128906 11.097656 L 14.4375 8.742188 L 16.160156 8.742188 L 15.664062 10.894531 C 15.636719 11.015625 15.53125 11.097656 15.410156 11.097656 Z M 15.410156 11.097656 "/>
</g>
</svg>
