<svg width="16" height="16" viewBox="0 0 16 16" fill="none" xmlns="http://www.w3.org/2000/svg">
<path d="M6.1875 8C6.1875 8.46413 6.37188 8.90925 6.70007 9.23744C7.02826 9.56563 7.47338 9.75 7.93751 9.75C8.40164 9.75 8.84676 9.56563 9.17495 9.23744C9.50313 8.90925 9.68751 8.46413 9.68751 8C9.68751 7.53587 9.50313 7.09075 9.17495 6.76256C8.84676 6.43437 8.40164 6.25 7.93751 6.25C7.47338 6.25 7.02826 6.43437 6.70007 6.76256C6.37188 7.09075 6.1875 7.53587 6.1875 8ZM14.7219 7.59688C13.2406 4.47656 11.0016 2.90625 8.00001 2.90625C4.99687 2.90625 2.75937 4.47656 1.27812 7.59844C1.2187 7.72425 1.18789 7.86165 1.18789 8.00078C1.18789 8.13991 1.2187 8.27732 1.27812 8.40312C2.75937 11.5234 4.99844 13.0938 8.00001 13.0938C11.0031 13.0938 13.2406 11.5234 14.7219 8.40156C14.8422 8.14844 14.8422 7.85469 14.7219 7.59688ZM7.93751 10.75C6.41875 10.75 5.1875 9.51875 5.1875 8C5.1875 6.48125 6.41875 5.25 7.93751 5.25C9.45626 5.25 10.6875 6.48125 10.6875 8C10.6875 9.51875 9.45626 10.75 7.93751 10.75Z" fill="#C5C7CD"/>
</svg>
