<svg width="16" height="16" viewBox="0 0 16 16" fill="none" xmlns="http://www.w3.org/2000/svg">
<path d="M6.1876 8C6.1876 8.46413 6.37198 8.90925 6.70017 9.23744C7.02835 9.56563 7.47347 9.75 7.9376 9.75C8.40173 9.75 8.84686 9.56563 9.17504 9.23744C9.50323 8.90925 9.68761 8.46413 9.68761 8C9.68761 7.53587 9.50323 7.09075 9.17504 6.76256C8.84686 6.43437 8.40173 6.25 7.9376 6.25C7.47347 6.25 7.02835 6.43437 6.70017 6.76256C6.37198 7.09075 6.1876 7.53587 6.1876 8ZM14.722 7.59688C13.2407 4.47656 11.0017 2.90625 8.0001 2.90625C4.99697 2.90625 2.75947 4.47656 1.27822 7.59844C1.2188 7.72425 1.18799 7.86165 1.18799 8.00078C1.18799 8.13991 1.2188 8.27732 1.27822 8.40312C2.75947 11.5234 4.99854 13.0938 8.0001 13.0938C11.0032 13.0938 13.2407 11.5234 14.722 8.40156C14.8423 8.14844 14.8423 7.85469 14.722 7.59688ZM7.9376 10.75C6.41885 10.75 5.1876 9.51875 5.1876 8C5.1876 6.48125 6.41885 5.25 7.9376 5.25C9.45636 5.25 10.6876 6.48125 10.6876 8C10.6876 9.51875 9.45636 10.75 7.9376 10.75Z" fill="#FF7C53"/>
</svg>
